Patient4_TMGait_0pt3_01_right_22_EMG.mot
version=1
nRows=19
nColumns=33
inDegrees=no
endheader
time	1LAddLong	2LGlutMax	3LGlutMed	4LIliopsoas	5LSemiMemb	6LBicFemLong	7LRecFem	8LVastMed	9LVastLat	10LGasMed	11LTibAnt	12lTibPost	13LPeroneusLong	14LSol	15LExtDigLong	16LFlexDigLong	17RAddLong	18RGlutMax	19RGlutMed	20RIliopsoas	21RSemiMemb	22RBicFemLong	23RRecFem	24RVastMed	25RVastLat	26RGasMed	27RTibAnt	28RTibPost	29RPeroneusLong	30RSol	31RExtDigLong	32RFlexDigLong
41.635	-0.034637	0.028381	-0.014496	0.012665	0.014496	0.22736	0.015564	0.006561	-0.10407	-0.00412	0.009766	0.021973	-0.02121	0.025787	0.024109	0.003052	0.047455	-0.031128	0.058136	0.12161	-0.087433	-0.019226	-0.19501	-0.035858	0.56229	-0.013733	1.075	-0.00061	-0.36865	-0.0914	0.000763	-0.015717
41.636	0.006104	0.005035	-0.016632	0.008698	-0.029449	-0.19974	0.011139	0.008087	-0.10346	-0.005951	0.014343	-0.001373	-0.018311	0.029449	0.005798	0.000763	0.017395	-0.000916	0.054016	0.20538	-0.099335	0.021973	-0.19379	-0.064545	0.40115	-0.013733	0.25238	-0.00061	-0.29129	-0.003204	0.002899	-0.014496
41.637	0.014343	0.027771	-0.006409	0.011597	0.013733	-0.55878	0.0354	0.004272	-0.094757	-0.018463	0.06134	0.009003	0.012512	0.052032	0.017395	0.00473	-0.037384	0.004272	0.10986	0.19989	0.028076	-0.013885	-0.25436	0.024261	0.19363	-0.003052	-0.28931	-0.005951	-0.028992	0.046997	-0.000458	-0.016937
41.638	0.035095	-0.010834	-0.019989	-0.001221	0.11353	-0.55588	0.032806	-0.001221	-0.091553	-0.014343	0.049438	0.00885	-0.008545	0.040436	0.049286	0	-0.061646	0.056	0.070343	0.084534	-0.043182	0.037537	-0.19028	0.00473	-0.17593	0.003815	-0.088043	-0.003815	0.21515	0.10635	0.001221	-0.018158
41.639	0.040741	0.003357	-0.028839	0.004425	0.10956	-0.66711	0.018921	-0.008087	-0.069885	-0.004578	0.005035	0.011139	-0.009918	0.017395	-0.032654	-0.00351	-0.031281	0.003052	-0.053864	0.017548	0.11597	0.018921	0.069275	0.069122	-0.58853	0.002899	-0.39887	-0.011597	0.16113	0.24872	-0.001678	-0.017242
41.64	0.033875	-0.005188	-0.022583	0.010223	0.093536	-0.32944	0.0177	-0.005493	-0.029449	-0.004578	-0.016937	0.008392	-0.001678	-0.000916	-0.071564	0.001526	-0.017548	-0.002899	-0.097504	-0.015869	0.10437	0.018311	0.32974	0.04776	-0.60059	-0.009308	-0.42236	-0.007477	0.088196	0.2739	0	-0.02533
41.641	0.032349	-0.043793	-0.037079	0.00946	0.085602	-0.009613	-0.005646	-0.010986	0.01297	-0.020142	-0.040436	0.006104	0.014343	0.036774	-0.064392	-0.000916	0.017853	0.036011	0.007019	-0.066986	0.015259	0.056915	0.40787	0.080414	-0.23041	-0.010681	-0.36575	-0.004578	0.031738	0.19623	0.001373	-0.027618
41.642	0.048065	-0.023651	-0.001221	-0.004578	0.057831	0.051727	0.01297	-0.009613	0.022278	-0.014801	-0.026245	0.01236	-0.004272	0.042114	-0.062561	0.006714	0.024414	0.045776	-0.11292	-0.019073	-0.011139	0.08316	0.21576	0.099182	-0.10941	-0.014191	-0.02182	-0.008392	0.007629	0.1265	0.00351	-0.03067
41.643	0.033722	-0.025177	0.020447	0.001526	0.016785	-0.024719	0.066071	-0.018921	0.012512	-0.009308	-0.019226	0.006561	-0.002747	0.029144	-0.062561	0.003815	0.034485	-0.047302	-0.070953	0.012665	0.04425	-0.010223	0.097656	0.14679	-0.066833	-0.012512	0.22247	-0.002441	-0.056	0.090332	0.001068	-0.026398
41.644	0.029297	-0.031738	-0.019226	0.004272	0.021667	-0.046844	0.077972	-0.011292	-0.028839	-0.010376	-0.004883	0.012207	-0.002441	0.02121	-0.059204	0.002289	0.011749	-0.11185	-0.17807	-0.044403	0.050354	-0.017242	-0.084381	0.19653	-0.053864	-0.011597	0.14999	-0.000763	-0.068817	0.092621	0.002289	-0.0354
41.645	0.023956	-0.061798	-0.010834	0.002441	0.018921	-0.016479	0.082855	0.00351	-0.020752	-0.011749	0.032043	0.009155	0.010223	-0.026398	0.019836	-0.007935	0.028839	-0.061951	-0.12619	-0.091553	-0.080719	0.007629	-0.070496	0.089722	-0.013733	-0.010376	0.7341	-0.009308	-0.14557	0.10605	0.001221	-0.033417
41.646	0.010223	-0.090027	-0.007935	0.007324	-0.008392	0.037537	0.062561	0.002289	-0.012512	-0.001678	-0.002289	0.017853	-0.015411	-0.015869	0.0354	0.015717	0.015259	-0.081635	0.12909	-0.06134	0.046844	0.056458	-0.03952	-0.050354	-0.012817	-0.013123	0.83344	-0.003052	-0.11459	0.044556	0.002747	-0.032043
41.647	0.000305	-0.033417	0.015259	0.025177	-0.041046	0.064545	0.006866	0.004883	0.023041	-0.00473	0.023651	0.011902	-0.010834	-0.026855	-0.002136	-0.002899	-0.007172	-0.061798	0.50339	0.048218	-0.045776	0.06073	0.018158	-0.24384	0.14755	-0.010376	0.2179	0.000153	0.029907	0.078278	0.003052	-0.038147
41.648	0.013428	-0.000458	0.000305	0.022736	-0.0354	0.03418	-0.03418	0.009613	0.045624	-0.001373	0.009918	0.014191	-0.004425	-0.032959	0.00351	-0.00351	-0.00946	-0.04425	0.17731	0.10162	0.039215	0.049896	-0.096893	-0.14297	0.14511	-0.011444	-0.2652	-0.003204	0.14114	0.13718	0.003357	-0.037842
41.649	0.015411	0.032654	-0.017853	0.014343	-0.026093	0.016022	-0.0354	0.005646	0.06897	0.00885	-0.004578	0.014191	0.007935	0.000916	-0.012817	0.012054	-0.023804	-0.058441	0.31174	0.071259	0.054016	0.069427	-0.17456	-0.046539	-0.061951	-0.010986	-0.91202	-0.002136	0.19745	0.112	-0.00412	-0.035248
41.65	0.01358	0.045013	-0.023651	-0.000458	0.079956	0.030975	-0.05722	0.00351	0.084381	0.010223	0.009003	0.01358	0.003967	0.005951	-0.014496	0.003204	-0.004578	-0.084991	0.024109	0.060883	0.045319	0.081482	-0.11841	-0.075226	0.006561	-0.013733	-0.67398	-0.006561	0.16449	0.10086	0.002441	-0.040894
41.651	-0.003204	0.050201	-0.047302	-0.003357	0.084381	0.076294	-0.02655	0.001373	0.067902	0.00824	0.001221	0.011444	0.003967	0.014954	-0.015717	0.018005	0.012512	-0.07309	-0.075073	0.018005	0.052643	0.008698	-0.088043	-0.11108	0.014801	-0.012665	-0.34302	-0.002594	0.10223	0.12192	0.002136	-0.033569
41.652	-0.018616	0.09613	-0.077515	0.01358	-0.02121	0.10605	0.072632	-0.003967	-0.027771	-0.011749	0.006256	0.01358	-0.001068	0.005646	-0.022888	0.007477	0.020599	-0.095367	-0.077667	-0.009766	-0.037231	-0.026093	-0.090485	-0.11002	0.061035	-0.00824	-0.051575	-0.005951	0.11139	0.072784	-0.003052	-0.028381
41.653	-0.014648	0.098114	-0.080261	0.007172	-0.041504	0.096741	0.10284	-0.003204	-0.078888	0.033112	-0.004425	0.021057	0.001068	0.008545	0.001373	0.014801	0.019531	-0.053253	-0.044403	-0.008545	-0.022888	-0.11734	-0.0737	-0.13931	0.029297	-0.001373	-0.37033	0.000763	0.14664	0.028381	0.000916	-0.032196
